# xmcd
#
# Track frame offsets: 
#        150
#        28035
#        50665
#        79100
#        104070
#        138125
#        165492
#        201330
#        230842
#        255005
#        277420
#        305967
#
# Disc length: 4441 seconds
#
# Revision: 2
# Processed by: cddbd v1.5.2PL0 Copyright (c) Steve Scherf et al.
# Submitted via: ExactAudioCopyFreeDBPlugin 1.0
#
DISCID=b011570c
DTITLE=Orquesta Tabaco y Ron - Remezclao Pa Bailar - Salsa Remixes
DYEAR=2002
DGENRE=Salsa
TTITLE0=Coquetona
TTITLE1=Sabor a melao
TTITLE2=Salsa pa' los triunfadores
TTITLE3=Prestame tu mujer
TTITLE4=Dime lo que se siente
TTITLE5=Avisale a mi contrario
TTITLE6=El son te llama (guajira)
TTITLE7=Lloraras
TTITLE8=Guaguanco Margarito
TTITLE9=Mulatica mia
TTITLE10=El son te llama (dance version) (guajira)
TTITLE11=Coquetona (dance version)
EXTD=
EXTT0=
EXTT1=
EXTT2=
EXTT3=
EXTT4=
EXTT5=
EXTT6=
EXTT7=
EXTT8=
EXTT9=
EXTT10=
EXTT11=
PLAYORDER=
